<svg xmlns="http://www.w3.org/2000/svg" viewBox="0 0 128 128">
  <rect width="128" height="128" rx="28" fill="#14141c"/>
  <g fill="none" stroke-linecap="round" stroke-linejoin="round" stroke-width="6">
    <path d="M30 34c0-4 3-7 7-7h24v70H37c-4 0-7 3-7 7z" fill="#3a3a52" stroke="#8b8bb0"/>
    <path d="M98 34c0-4-3-7-7-7H67v70h24c4 0 7 3 7 7z" fill="#7c5cff" stroke="#c9b8ff"/>
    <path d="M30 104c0-4 3-7 7-7h54c4 0 7 3 7 7" stroke="#8b8bb0"/>
    <path d="M40 44h12M40 56h12M76 44h12M76 56h12" stroke="#ecebf5" stroke-width="5"/>
  </g>
</svg>
